<?xml version="1.0" standalone="no"?>
<!DOCTYPE svg PUBLIC "-//W3C//DTD SVG 1.1//EN" 
"http://www.w3.org/Graphics/SVG/1.1/DTD/svg11.dtd">

<svg 
   width="100%" 
   height="100%" 
   version="1.1"
   xmlns="http://www.w3.org/2000/svg"
   xmlns:xlink="http://www.w3.org/1999/xlink">

   <defs>
      <g id="sp1">	 
         <polygon  
            points="-7.5, 0 
		    7.5, 0
		    0,24"
	    style="fill:white"/>

       </g>	    
    </defs>

   <rect 
      x="0" 
      y="0" 
      height="300" 
      width="450" 
      style="fill:red" />

   <rect 
      x="0"
      y="0"
      height="150"
      width="225"
      style="fill:rgb(0,0,156)"/>

   <circle 
      cx="112.5" 
      cy="75" 
      r="30" 
      fill="white"/>

   <use xlink:href="#sp1" x="112.5" y="108" />
   <use xlink:href="#sp1" x="112.5" y="108"
transform="rotate(30,112.5,75)"/>
   <use xlink:href="#sp1" x="112.5" y="108"
transform="rotate(60,112.5,75)"/>
   <use xlink:href="#sp1" x="112.5" y="108"
transform="rotate(90,112.5,75)"/>
   <use xlink:href="#sp1" x="112.5" y="108"
transform="rotate(120,112.5,75)"/>
   <use xlink:href="#sp1" x="112.5" y="108"
transform="rotate(150,112.5,75)"/>
   <use xlink:href="#sp1" x="112.5" y="108"
transform="rotate(180,112.5,75)"/>
   <use xlink:href="#sp1" x="112.5" y="108"
transform="rotate(210,112.5,75)"/>
   <use xlink:href="#sp1" x="112.5" y="108"
transform="rotate(240,112.5,75)"/>
   <use xlink:href="#sp1" x="112.5" y="108"
transform="rotate(270,112.5,75)"/>
   <use xlink:href="#sp1" x="112.5" y="108"
transform="rotate(300,112.5,75)"/>
   <use xlink:href="#sp1" x="112.5" y="108"
transform="rotate(330,112.5,75)"/>

</svg>





